<svg xmlns="http://www.w3.org/2000/svg" viewBox="0 0 1042.09 309.94">
  <path fill="#997f3d" d="M9.23 14L0 13.28V1.8h66.86v11.48L53.13 14l37.14 108.23 36.91-107.82-13.5-1.13V1.8h38.72v11.48l-9.46 1.13L92.52 158H59.88zm146.3 131.87l13.28-.68V14l-13.28-.68V1.8h70.23v11.48l-13.28.72v131.19l13.28.68v11.48h-70.23zm82.83 2.7l-1.13-39.39h11.71l6.06 31.74c9.23 3.82 24.53 5.17 36.24 5.17 19.36 0 27-4.05 27-24.53 0-18.69-8.78-21.61-32.19-27.47-29.71-7.43-47.27-12.38-47.27-48.39 0-32.87 22.51-45.7 66.63-45.7 18.23 0 36 3.38 44.57 8.33l.9 35.34h-11.45l-7-27.46c-6.75-2.93-16.65-3.83-28.81-3.83-16.21 0-23.64 4.95-23.64 20.71 0 19.59 9.23 20.94 30.62 26.11C338.31 66 359 71.36 359 109.4c0 28.14-12.39 49.3-67.76 49.3-21.82 0-40.5-4.28-52.88-10.13zm122.22-2.7l9.23-1.13L420.23 1.13h33.09l50.43 144.06 9.22.68v11.48h-66.85v-11.48l13.73-.68-13.06-38H398.4l-12.83 37.59 13.73 1.13v11.48h-38.72zM443 95.9l-20.29-60.11-20.49 60.11zm122.17 49.97l12.39-.9V14l-12.39-.68V1.8h70.24v11.48l-14.18.72v132.54h45.47l5.85-37.36h12.38l-.9 48.17H565.17zm123.12 0l9.23-1.13L747.94 1.13H781l50.42 144.06 9.23.68v11.48h-66.82v-11.48l13.73-.68-13-38h-48.4l-12.83 37.59 13.67 1.09v11.48h-38.71zm82.39-50l-20.26-60.08-20.48 60.11zM836.85 14l-8.55-.68V1.8h63v11.48l-12.6.68 26.79 95.89L933 1.8h32.41l26.34 108.73L1019 14.41l-10.58-1.13V1.8h32.87v11.48l-6.76 1.13L992.62 158H964L936.12 46.82 907.53 158h-28.59z"/>
  <path fill="#0d2f13" d="M432.78 225.19c11.7 0 17.22 1.35 22.4 5.29 5.51 4.27 8.89 12 8.89 19.81s-3.49 15.87-8.56 19.81c-5.51 4.27-11.14 5.62-21.94 5.62h-13.4v32.75h-9.34v-83.28zm-12.61 42.32h13.28c7 0 11.26-.79 15.42-3.49 3.6-2.37 6.19-7.66 6.19-13.51s-2.59-11.26-6.3-13.62c-4.17-2.7-8.44-3.49-15.53-3.49h-13.06zm58.41-42.32h21.72c13.05 0 19.13 1.57 23.41 4.27 6.75 4 11.37 12.95 11.37 22.4a26.92 26.92 0 0 1-5 16.32c-5 6.75-10.92 8.33-18.57 9.12l20.7 31.17h-10.08l-23.52-36.35h2.7c5.86 0 14-.11 18.46-4.28a20.29 20.29 0 0 0 6.3-15.3c0-6.2-3-12.72-8.21-16.1-4.17-2.7-9.34-3-16.88-3h-13.06v75.07h-9.34zm69.1 41.87c0-25.67 19.92-43.34 43.44-43.34 24.42 0 43.45 18.69 43.45 43.11s-18.91 43.11-43.45 43.11-43.44-19-43.44-42.77zm9.34-.23c0 19.58 14.74 34.89 34.21 34.89 19.7 0 34.11-15.87 34.11-34.89s-14.41-34.89-34.22-34.89c-19.58 0-34.1 15.53-34.1 34.78z"/>
  <path fill="#0c2f12" d="M1.34 259.55h379.42v6.43H1.34zm661.32 0h379.42v6.43H662.66z"/>
</svg>
